<svg width="1963" height="1256" viewBox="0 0 1963 1256" fill="none" xmlns="http://www.w3.org/2000/svg">
<g id="Group 3">
<g id="PLANTS">
<path id="Vector" d="M1962.91 1253.75C1962.91 1079.93 1837.12 939.02 1681.97 939.02C1526.82 939.02 1401.03 1079.93 1401.03 1253.75H1962.91Z" fill="#EDE0C4"/>
<path id="Vector_2" d="M655.8 1208.66L645.39 1253.75H108.24L97.84 1208.66C95.2857 1197.59 95.2621 1186.08 97.771 1175C100.28 1163.92 105.257 1153.55 112.331 1144.66C119.405 1135.76 128.393 1128.58 138.628 1123.65C148.862 1118.71 160.078 1116.15 171.44 1116.15C175.598 1116.16 179.687 1115.08 183.292 1113.01C186.897 1110.94 189.892 1107.95 191.973 1104.35C194.054 1100.75 195.147 1096.67 195.144 1092.51C195.14 1088.35 194.038 1084.27 191.95 1080.67L148.95 1005.95C143.333 996.192 139.969 985.302 139.104 974.076C138.239 962.85 139.894 951.573 143.949 941.069C148.004 930.566 154.356 921.102 162.54 913.37C170.724 905.637 180.533 899.833 191.25 896.38L252.72 876.57C256.194 875.451 259.361 873.543 261.976 870.997C264.59 868.45 266.58 865.334 267.79 861.891C269.001 858.448 269.398 854.771 268.953 851.149C268.507 847.527 267.229 844.057 265.22 841.01L243.5 808.13C215.57 765.79 236.5 708.49 285.14 694.13L308.99 687.13C314.765 685.418 319.671 681.569 322.709 676.367C325.746 671.165 326.687 665.001 325.34 659.13L313.27 606.92C311.064 597.381 310.982 587.473 313.03 577.899C315.077 568.325 319.205 559.318 325.121 551.516C331.037 543.714 338.595 537.308 347.261 532.752C355.927 528.196 365.489 525.6 375.27 525.15V525.08H378.38V525.15C388.161 525.6 397.723 528.196 406.389 532.752C415.055 537.308 422.614 543.714 428.529 551.516C434.445 559.318 438.573 568.325 440.62 577.899C442.668 587.473 442.586 597.381 440.38 606.92L428.32 659.13C426.97 665.001 427.91 671.167 430.948 676.369C433.986 681.572 438.893 685.42 444.67 687.13L468.51 694.13C517.17 708.52 538.09 765.82 510.15 808.13L488.46 841.01C486.449 844.056 485.17 847.526 484.723 851.149C484.276 854.772 484.673 858.449 485.883 861.893C487.094 865.336 489.085 868.453 491.7 871C494.316 873.546 497.485 875.452 500.96 876.57L562.42 896.38C573.136 899.833 582.945 905.638 591.13 913.37C599.314 921.102 605.666 930.566 609.722 941.069C613.777 951.572 615.434 962.849 614.57 974.074C613.707 985.3 610.345 996.191 604.73 1005.95L561.73 1080.67C559.642 1084.27 558.54 1088.35 558.536 1092.51C558.533 1096.67 559.628 1100.76 561.71 1104.36C563.792 1107.96 566.788 1110.94 570.395 1113.01C574.001 1115.08 578.091 1116.17 582.25 1116.15C593.608 1116.16 604.818 1118.73 615.046 1123.66C625.274 1128.6 634.257 1135.78 641.325 1144.68C648.393 1153.57 653.366 1163.94 655.872 1175.01C658.378 1186.09 658.353 1197.59 655.8 1208.66V1208.66Z" fill="#D9AF00"/>
<path id="Vector_3" d="M396 1253.75C396 1146.21 307.35 1059.02 198 1059.02C88.65 1059.02 0 1146.21 0 1253.75H396Z" fill="#EDE0C4"/>
<path id="Vector_4" d="M416.04 1087.6V1253.75" stroke="#D9AF00" stroke-width="3.92" stroke-miterlimit="10" stroke-linecap="round"/>
<path id="Vector_5" d="M444.04 1145.05L416.04 1181.36" stroke="#D9AF00" stroke-width="3.92" stroke-miterlimit="10" stroke-linecap="round"/>
<path id="Vector_6" d="M416.04 1253.75L364.93 1204.55" stroke="#D9AF00" stroke-width="3.92" stroke-miterlimit="10" stroke-linecap="round"/>
<path id="Vector_7" d="M416.04 1077C431.504 1077 444.04 1064.46 444.04 1049C444.04 1033.54 431.504 1021 416.04 1021C400.576 1021 388.04 1033.54 388.04 1049C388.04 1064.46 400.576 1077 416.04 1077Z" fill="white"/>
<path id="Vector_8" d="M416.04 1021V1077" stroke="#D9AF00" stroke-width="2.24" stroke-miterlimit="10" stroke-linecap="round"/>
<path id="Vector_9" d="M388.04 1049H444.04" stroke="#D9AF00" stroke-width="2.24" stroke-miterlimit="10" stroke-linecap="round"/>
<path id="Vector_10" d="M396.24 1029.2L435.84 1068.79" stroke="#D9AF00" stroke-width="2.24" stroke-miterlimit="10" stroke-linecap="round"/>
<path id="Vector_11" d="M396.24 1068.79L435.84 1029.2" stroke="#D9AF00" stroke-width="2.24" stroke-miterlimit="10" stroke-linecap="round"/>
<path id="Vector_12" d="M416.04 1059.36C421.762 1059.36 426.4 1054.72 426.4 1049C426.4 1043.28 421.762 1038.64 416.04 1038.64C410.318 1038.64 405.68 1043.28 405.68 1049C405.68 1054.72 410.318 1059.36 416.04 1059.36Z" fill="white"/>
<path id="Vector_13" d="M416.04 1054.6C419.133 1054.6 421.64 1052.09 421.64 1049C421.64 1045.91 419.133 1043.4 416.04 1043.4C412.947 1043.4 410.44 1045.91 410.44 1049C410.44 1052.09 412.947 1054.6 416.04 1054.6Z" fill="#D9AF00"/>
<path id="Vector_14" d="M494.914 1125.65C498.466 1110.6 489.145 1095.52 474.094 1091.97C459.044 1088.41 443.963 1097.73 440.411 1112.78C436.859 1127.84 446.18 1142.92 461.231 1146.47C476.281 1150.02 491.362 1140.7 494.914 1125.65Z" fill="white"/>
<path id="Vector_15" d="M467.69 1091.28V1147.28" stroke="#D9AF00" stroke-width="2.24" stroke-miterlimit="10" stroke-linecap="round"/>
<path id="Vector_16" d="M439.69 1119.28H495.69" stroke="#D9AF00" stroke-width="2.24" stroke-miterlimit="10" stroke-linecap="round"/>
<path id="Vector_17" d="M447.89 1099.48L487.49 1139.08" stroke="#D9AF00" stroke-width="2.24" stroke-miterlimit="10" stroke-linecap="round"/>
<path id="Vector_18" d="M447.89 1139.08L487.49 1099.48" stroke="#D9AF00" stroke-width="2.24" stroke-miterlimit="10" stroke-linecap="round"/>
<path id="Vector_19" d="M467.69 1129.64C473.412 1129.64 478.05 1125 478.05 1119.28C478.05 1113.56 473.412 1108.92 467.69 1108.92C461.968 1108.92 457.33 1113.56 457.33 1119.28C457.33 1125 461.968 1129.64 467.69 1129.64Z" fill="white"/>
<path id="Vector_20" d="M467.69 1124.88C470.783 1124.88 473.29 1122.37 473.29 1119.28C473.29 1116.19 470.783 1113.68 467.69 1113.68C464.597 1113.68 462.09 1116.19 462.09 1119.28C462.09 1122.37 464.597 1124.88 467.69 1124.88Z" fill="#D9AF00"/>
<path id="Vector_21" d="M365.444 1183.86C368.996 1168.81 359.675 1153.73 344.624 1150.18C329.574 1146.63 314.494 1155.95 310.941 1171C307.389 1186.05 316.71 1201.13 331.761 1204.68C346.811 1208.23 361.892 1198.91 365.444 1183.86Z" fill="white"/>
<path id="Vector_22" d="M338.21 1149.51V1205.51" stroke="#D9AF00" stroke-width="2.24" stroke-miterlimit="10" stroke-linecap="round"/>
<path id="Vector_23" d="M310.21 1177.51H366.21" stroke="#D9AF00" stroke-width="2.24" stroke-miterlimit="10" stroke-linecap="round"/>
<path id="Vector_24" d="M318.41 1157.71L358.01 1197.31" stroke="#D9AF00" stroke-width="2.24" stroke-miterlimit="10" stroke-linecap="round"/>
<path id="Vector_25" d="M318.41 1197.31L358.01 1157.71" stroke="#D9AF00" stroke-width="2.24" stroke-miterlimit="10" stroke-linecap="round"/>
<path id="Vector_26" d="M338.21 1187.87C343.932 1187.87 348.57 1183.23 348.57 1177.51C348.57 1171.79 343.932 1167.15 338.21 1167.15C332.488 1167.15 327.85 1171.79 327.85 1177.51C327.85 1183.23 332.488 1187.87 338.21 1187.87Z" fill="white"/>
<path id="Vector_27" d="M338.21 1183.11C341.303 1183.11 343.81 1180.6 343.81 1177.51C343.81 1174.42 341.303 1171.91 338.21 1171.91C335.117 1171.91 332.61 1174.42 332.61 1177.51C332.61 1180.6 335.117 1183.11 338.21 1183.11Z" fill="#D9AF00"/>
<path id="Vector_28" d="M1633.25 1158.97V1251.5" stroke="#D9AF00" stroke-width="3.92" stroke-miterlimit="10" stroke-linecap="round"/>
<path id="Vector_29" d="M1661.25 1202.14L1633.25 1238.45" stroke="#D9AF00" stroke-width="3.92" stroke-miterlimit="10" stroke-linecap="round"/>
<path id="Vector_30" d="M1660.43 1126.71C1663.98 1111.66 1654.66 1096.58 1639.61 1093.03C1624.56 1089.48 1609.48 1098.8 1605.92 1113.85C1602.37 1128.9 1611.69 1143.98 1626.74 1147.53C1641.79 1151.09 1656.87 1141.77 1660.43 1126.71Z" fill="white"/>
<path id="Vector_31" d="M1633.25 1092.36V1148.36" stroke="#D9AF00" stroke-width="2.24" stroke-miterlimit="10" stroke-linecap="round"/>
<path id="Vector_32" d="M1605.25 1120.36H1661.25" stroke="#D9AF00" stroke-width="2.24" stroke-miterlimit="10" stroke-linecap="round"/>
<path id="Vector_33" d="M1613.45 1100.57L1653.05 1140.16" stroke="#D9AF00" stroke-width="2.24" stroke-miterlimit="10" stroke-linecap="round"/>
<path id="Vector_34" d="M1613.45 1140.16L1653.05 1100.57" stroke="#D9AF00" stroke-width="2.24" stroke-miterlimit="10" stroke-linecap="round"/>
<path id="Vector_35" d="M1633.25 1130.72C1638.97 1130.72 1643.61 1126.08 1643.61 1120.36C1643.61 1114.64 1638.97 1110 1633.25 1110C1627.53 1110 1622.89 1114.64 1622.89 1120.36C1622.89 1126.08 1627.53 1130.72 1633.25 1130.72Z" fill="white"/>
<path id="Vector_36" d="M1633.25 1125.96C1636.34 1125.96 1638.85 1123.45 1638.85 1120.36C1638.85 1117.27 1636.34 1114.76 1633.25 1114.76C1630.16 1114.76 1627.65 1117.27 1627.65 1120.36C1627.65 1123.45 1630.16 1125.96 1633.25 1125.96Z" fill="#D9AF00"/>
<path id="Vector_37" d="M1704.7 1196.17C1715.63 1185.24 1715.63 1167.51 1704.7 1156.57C1693.77 1145.64 1676.04 1145.64 1665.1 1156.57C1654.17 1167.51 1654.17 1185.24 1665.1 1196.17C1676.04 1207.11 1693.77 1207.11 1704.7 1196.17Z" fill="white"/>
<path id="Vector_38" d="M1684.9 1148.36V1204.37" stroke="#D9AF00" stroke-width="2.24" stroke-miterlimit="10" stroke-linecap="round"/>
<path id="Vector_39" d="M1656.9 1176.37H1712.9" stroke="#D9AF00" stroke-width="2.24" stroke-miterlimit="10" stroke-linecap="round"/>
<path id="Vector_40" d="M1665.1 1156.57L1704.7 1196.16" stroke="#D9AF00" stroke-width="2.24" stroke-miterlimit="10" stroke-linecap="round"/>
<path id="Vector_41" d="M1665.1 1196.16L1704.7 1156.57" stroke="#D9AF00" stroke-width="2.24" stroke-miterlimit="10" stroke-linecap="round"/>
<path id="Vector_42" d="M1684.9 1186.73C1690.62 1186.73 1695.26 1182.09 1695.26 1176.37C1695.26 1170.65 1690.62 1166.01 1684.9 1166.01C1679.18 1166.01 1674.54 1170.65 1674.54 1176.37C1674.54 1182.09 1679.18 1186.73 1684.9 1186.73Z" fill="white"/>
<path id="Vector_43" d="M1684.9 1181.97C1687.99 1181.97 1690.5 1179.46 1690.5 1176.37C1690.5 1173.28 1687.99 1170.77 1684.9 1170.77C1681.81 1170.77 1679.3 1173.28 1679.3 1176.37C1679.3 1179.46 1681.81 1181.97 1684.9 1181.97Z" fill="#D9AF00"/>
<path id="Vector_44" d="M1911.12 1253.75H1671.61C1671.61 1227.36 1703.55 1205.97 1742.95 1205.97C1756 1205.87 1768.93 1208.37 1781 1213.33C1789.63 1200.79 1802.04 1191.33 1816.42 1186.35C1830.81 1181.36 1846.41 1181.11 1860.94 1185.63C1875.48 1190.14 1888.19 1199.19 1897.22 1211.45C1906.25 1223.7 1911.12 1238.53 1911.12 1253.75V1253.75Z" fill="#F5EFD9"/>
</g>
<g id="OLD WOMAN">
<g id="WHEEL CHAIR">
<path id="Vector_45" d="M1138.76 577.18H1070.69C1069.71 577.181 1068.74 576.99 1067.84 576.617C1066.94 576.243 1066.11 575.695 1065.42 575.004C1064.73 574.313 1064.18 573.493 1063.81 572.589C1063.43 571.686 1063.24 570.718 1063.24 569.74V569.74C1063.24 567.764 1064.02 565.869 1065.42 564.472C1066.82 563.075 1068.71 562.29 1070.69 562.29H1138.76C1140.73 562.293 1142.63 563.079 1144.02 564.476C1145.42 565.872 1146.2 567.766 1146.2 569.74V569.74C1146.2 571.713 1145.42 573.606 1144.02 575.001C1142.63 576.396 1140.73 577.18 1138.76 577.18V577.18Z" fill="#D9AF00"/>
<path id="Vector_46" d="M1144.67 562.26H1063.24C1053.48 562.26 1043.98 565.448 1036.19 571.34C1028.41 577.231 1022.76 585.504 1020.1 594.9L952.74 827.03C941.855 864.561 919.079 897.544 887.837 921.018C856.596 944.492 818.578 957.189 779.5 957.2" stroke="#56303C" stroke-width="4.33" stroke-miterlimit="10" stroke-linecap="round"/>
<path id="Vector_47" d="M936.38 1253.75C1047.79 1253.75 1138.1 1150.71 1138.1 1023.61C1138.1 896.507 1047.79 793.47 936.38 793.47C824.973 793.47 734.66 896.507 734.66 1023.61C734.66 1150.71 824.973 1253.75 936.38 1253.75Z" stroke="#56303C" stroke-width="4.33" stroke-miterlimit="10" stroke-linecap="round"/>
<path id="Vector_48" d="M922.18 957.2H870.29L1019.5 591.53H1165.41L1100.25 822.42C1089.31 861.219 1065.99 895.381 1033.85 919.71C1001.7 944.04 962.493 957.204 922.18 957.2V957.2Z" fill="#56303C"/>
</g>
<g id="OLD WOMAN_2">
<g id="DRESS">
<path id="Vector_49" d="M817.5 1059.02V1023.46C817.499 1014.76 819.211 1006.14 822.54 998.104C825.869 990.065 830.749 982.761 836.901 976.608C843.053 970.455 850.356 965.574 858.395 962.244C866.433 958.914 875.049 957.2 883.75 957.2H922.35C1050.05 957.2 1139.35 830.87 1096.7 710.5L1049.99 578.62C1042.94 558.702 1029.88 541.46 1012.63 529.265C995.371 517.069 974.76 510.521 953.63 510.52V510.52C937.124 510.515 920.862 514.506 906.234 522.153C891.606 529.799 879.047 540.874 869.63 554.43L796.83 659.26C788.957 670.593 785.621 684.467 787.482 698.141C789.342 711.815 796.264 724.293 806.88 733.11L816.29 740.93H784.99C765.118 740.93 745.441 744.844 727.082 752.45C708.722 760.055 692.041 771.202 677.991 785.255C663.94 799.307 652.795 815.99 645.192 834.35C637.589 852.71 633.677 872.388 633.68 892.26V1025.13L817.5 1059.02Z" fill="#FFAFB1"/>
<path id="Vector_50" d="M945.25 513.96L999.6 519.86C999.6 519.86 988.45 565.5 963.95 574.37C944.75 581.32 924.95 574.92 919.74 560.37C919.63 560.04 919.52 559.71 919.42 559.37C916.335 561.64 912.681 563.01 908.864 563.329C905.047 563.648 901.216 562.902 897.798 561.175C894.379 559.448 891.506 556.807 889.497 553.546C887.489 550.285 886.424 546.53 886.42 542.7C886.42 531.26 903.37 521.99 914.82 521.99L945.25 513.96Z" fill="white"/>
<path id="Vector_51" d="M847.35 688.12C846.947 696.646 848.531 705.149 851.975 712.958C855.42 720.767 860.632 727.669 867.2 733.12L876.61 740.94" stroke="white" stroke-width="3.92" stroke-miterlimit="10" stroke-linecap="round"/>
<path id="Vector_52" d="M816.29 740.92H840.07" stroke="#56303C" stroke-width="4.33" stroke-miterlimit="10" stroke-linecap="round"/>
<path id="Vector_53" d="M954.96 734.25L1022.58 690.09" stroke="#56303C" stroke-width="4.33" stroke-miterlimit="10" stroke-linecap="round"/>
<path id="Vector_54" d="M1006.93 680.73L1006.08 699.08" stroke="#56303C" stroke-width="4.33" stroke-miterlimit="10" stroke-linecap="round"/>
<path id="Vector_55" d="M918.5 562.29L897.93 597.89" stroke="#56303C" stroke-width="4.33" stroke-miterlimit="10" stroke-linecap="round"/>
<path id="Vector_56" d="M1097.97 708.38C1100.4 715.228 1101.14 722.558 1100.15 729.755C1099.15 736.952 1096.45 743.805 1092.25 749.739C1088.06 755.672 1082.51 760.513 1076.06 763.854C1069.6 767.195 1062.45 768.939 1055.18 768.94H991.69" stroke="#56303C" stroke-width="4.33" stroke-miterlimit="10" stroke-linecap="round"/>
</g>
<g id="LEGS">
<path id="Vector_57" d="M817.5 1059.02V1133.18C817.5 1136.41 816.821 1139.6 815.506 1142.55C814.191 1145.5 812.269 1148.14 809.866 1150.3C807.464 1152.45 804.634 1154.08 801.561 1155.07C798.488 1156.06 795.24 1156.4 792.03 1156.05L633.71 1138.48V1025.1L817.5 1059.02Z" fill="#B4702F"/>
<path id="Vector_58" d="M700.2 1146L583.01 1132.76L583.08 1130.42C583.08 1121.55 587.57 1115.2 595.08 1110.49L633.71 1086.29C633.71 1086.29 681.85 1093.26 700.2 1146Z" fill="#A0D6FF"/>
<path id="Vector_59" d="M777.86 1154.52L660.79 1140.74V1138.85C660.788 1135.4 661.663 1132.01 663.332 1129C665.001 1125.98 667.409 1123.44 670.33 1121.61L711.49 1095.81C711.49 1095.81 759.5 1101.73 777.86 1154.52Z" fill="#A0D6FF"/>
<path id="Vector_60" d="M660.79 1140.74V1138.85C660.788 1135.4 661.663 1132.01 663.332 1129C665.001 1125.98 667.409 1123.44 670.33 1121.61L711.49 1095.81" stroke="#56303C" stroke-width="4.33" stroke-miterlimit="10" stroke-linecap="round"/>
<path id="Vector_61" d="M711.49 1095.81L694.64 976.03" stroke="#56303C" stroke-width="4.33" stroke-miterlimit="10" stroke-linecap="round"/>
</g>
<g id="HANDS">
<path id="Vector_62" d="M1012.26 765.76H977.5C973.496 765.765 969.623 767.183 966.563 769.765C963.502 772.346 961.451 775.925 960.77 779.87L960.2 783.19C960.042 784.115 959.684 784.994 959.151 785.766C958.619 786.538 957.924 787.184 957.116 787.66C956.307 788.136 955.405 788.43 954.471 788.522C953.538 788.613 952.595 788.5 951.71 788.19L922.03 777.82C919.932 777.086 918.138 775.674 916.932 773.807C915.726 771.94 915.176 769.724 915.37 767.51L916.03 761.85C916.361 758.953 917.382 756.179 919.01 753.76C920.637 751.341 922.822 749.348 925.38 747.95L953.38 732.65C953.38 732.65 1013.01 730.96 1012.26 765.76Z" fill="#B4702F"/>
<path id="Vector_63" d="M927.23 759.75L925.23 777.83" stroke="#56303C" stroke-width="4.33" stroke-miterlimit="10" stroke-linecap="round"/>
<path id="Vector_64" d="M937.55 762.92L935.55 781.01" stroke="#56303C" stroke-width="4.33" stroke-miterlimit="10" stroke-linecap="round"/>
<path id="Vector_65" d="M947.87 766.1L945.87 784.18" stroke="#56303C" stroke-width="4.33" stroke-miterlimit="10" stroke-linecap="round"/>
<path id="Vector_66" d="M753.22 681.79H743.04C730.277 681.79 719.93 692.137 719.93 704.9V712.77C719.93 725.533 730.277 735.88 743.04 735.88H753.22C765.983 735.88 776.33 725.533 776.33 712.77V704.9C776.33 692.137 765.983 681.79 753.22 681.79Z" fill="#B4702F"/>
<path id="Vector_67" d="M726.02 696.67H742.14" stroke="#56303C" stroke-width="4.33" stroke-miterlimit="10" stroke-linecap="round"/>
<path id="Vector_68" d="M726.02 709.37H746.91" stroke="#56303C" stroke-width="4.33" stroke-miterlimit="10" stroke-linecap="round"/>
<path id="Vector_69" d="M726.02 722.07H742.14" stroke="#56303C" stroke-width="4.33" stroke-miterlimit="10" stroke-linecap="round"/>
</g>
<g id="FLOWERS">
<path id="Vector_70" d="M732.79 674.21L709.72 603.09" stroke="#D9AF00" stroke-width="3.07" stroke-miterlimit="10" stroke-linecap="round"/>
<path id="Vector_71" d="M743.99 690.29L743.61 636.36" stroke="#56303C" stroke-width="4.33" stroke-miterlimit="10" stroke-linecap="round"/>
<path id="Vector_72" d="M752.36 585.95C752.5 591.59 742.51 600.4 742.51 600.4C742.51 600.4 732.07 592.11 731.93 586.47C731.911 583.792 732.943 581.213 734.806 579.288C736.669 577.364 739.212 576.247 741.89 576.179C744.567 576.111 747.164 577.097 749.122 578.924C751.081 580.751 752.243 583.274 752.36 585.95V585.95Z" fill="#D9AF00"/>
<path id="Vector_73" d="M732.79 620.26C732.65 614.62 742.64 605.82 742.64 605.82C742.64 605.82 753.08 614.1 753.22 619.74C753.279 621.096 753.068 622.451 752.597 623.725C752.127 624.999 751.408 626.166 750.482 627.159C749.555 628.151 748.44 628.949 747.202 629.506C745.964 630.063 744.627 630.368 743.27 630.403C741.912 630.437 740.562 630.201 739.297 629.708C738.032 629.214 736.878 628.474 735.902 627.53C734.927 626.585 734.149 625.456 733.614 624.208C733.08 622.96 732.8 621.618 732.79 620.26V620.26Z" fill="#D9AF00"/>
<path id="Vector_74" d="M726.34 593.26C731.98 593.11 740.79 603.11 740.79 603.11C740.79 603.11 732.5 613.54 726.86 613.68C725.519 613.714 724.185 613.484 722.933 613.002C721.681 612.521 720.537 611.797 719.564 610.873C718.592 609.949 717.811 608.843 717.267 607.617C716.722 606.392 716.424 605.071 716.39 603.73C716.356 602.389 716.586 601.055 717.068 599.803C717.549 598.551 718.273 597.407 719.197 596.434C720.12 595.462 721.227 594.681 722.453 594.137C723.678 593.592 724.999 593.294 726.34 593.26V593.26Z" fill="#D9AF00"/>
<path id="Vector_75" d="M758.81 612.9C753.17 613.04 744.36 603.05 744.36 603.05C744.36 603.05 752.65 592.62 758.29 592.47C760.968 592.451 763.547 593.483 765.472 595.346C767.396 597.209 768.513 599.752 768.581 602.43C768.649 605.107 767.663 607.704 765.836 609.662C764.009 611.621 761.486 612.783 758.81 612.9V612.9Z" fill="#D9AF00"/>
<path id="Vector_76" d="M748.69 602.94C748.713 604.149 748.378 605.337 747.727 606.356C747.075 607.374 746.137 608.177 745.029 608.663C743.922 609.148 742.696 609.295 741.505 609.085C740.315 608.874 739.213 608.316 738.34 607.48C737.466 606.644 736.86 605.568 736.597 604.388C736.335 603.208 736.427 601.976 736.864 600.849C737.3 599.721 738.061 598.748 739.05 598.053C740.039 597.357 741.211 596.97 742.42 596.94C743.226 596.92 744.028 597.06 744.78 597.351C745.533 597.642 746.22 598.079 746.802 598.636C747.385 599.194 747.852 599.861 748.176 600.6C748.5 601.338 748.674 602.134 748.69 602.94Z" fill="#56303C"/>
<path id="Vector_77" d="M717.96 552.14C717.8 557.78 707.33 566.02 707.33 566.02C707.33 566.02 697.33 557.18 697.54 551.54C697.579 550.199 697.882 548.879 698.432 547.656C698.981 546.432 699.767 545.328 700.743 544.408C701.718 543.488 702.866 542.769 704.12 542.292C705.374 541.816 706.709 541.59 708.05 541.63C709.391 541.669 710.711 541.972 711.934 542.522C713.158 543.071 714.261 543.857 715.182 544.832C716.102 545.808 716.821 546.956 717.298 548.21C717.774 549.464 717.999 550.799 717.96 552.14Z" fill="#D9AF00"/>
<path id="Vector_78" d="M696.5 585.26C696.67 579.62 707.13 571.38 707.13 571.38C707.13 571.38 717.13 580.22 716.93 585.87C716.902 587.22 716.608 588.551 716.063 589.786C715.518 591.021 714.733 592.136 713.755 593.067C712.776 593.997 711.623 594.724 710.362 595.207C709.101 595.689 707.757 595.916 706.407 595.876C705.058 595.836 703.729 595.528 702.499 594.972C701.269 594.415 700.162 593.62 699.24 592.633C698.319 591.646 697.603 590.486 697.132 589.221C696.662 587.955 696.447 586.609 696.5 585.26Z" fill="#D9AF00"/>
<path id="Vector_79" d="M691.58 558.03C697.22 558.2 705.46 568.66 705.46 568.66C705.46 568.66 696.62 578.66 690.98 578.46C688.291 578.352 685.753 577.187 683.917 575.219C682.081 573.251 681.096 570.638 681.175 567.948C681.254 565.258 682.391 562.707 684.339 560.85C686.287 558.993 688.889 557.98 691.58 558.03V558.03Z" fill="#D9AF00"/>
<path id="Vector_80" d="M722.92 579.4C717.28 579.23 709.04 568.77 709.04 568.77C709.04 568.77 717.89 558.77 723.53 558.97C724.88 558.998 726.211 559.292 727.446 559.837C728.681 560.383 729.796 561.167 730.727 562.145C731.657 563.124 732.385 564.277 732.867 565.538C733.349 566.799 733.576 568.143 733.536 569.493C733.496 570.842 733.189 572.171 732.632 573.401C732.075 574.631 731.281 575.738 730.293 576.66C729.306 577.581 728.147 578.297 726.881 578.768C725.615 579.238 724.269 579.453 722.92 579.4V579.4Z" fill="#D9AF00"/>
<path id="Vector_81" d="M713.105 571.435C714.555 568.23 713.131 564.456 709.925 563.007C706.72 561.557 702.946 562.981 701.497 566.186C700.047 569.392 701.471 573.166 704.676 574.615C707.882 576.065 711.656 574.641 713.105 571.435Z" fill="#56303C"/>
<path id="Vector_82" d="M780.73 522.83C780.4 527.96 770.59 535.12 770.59 535.12C770.59 535.12 761.82 526.74 762.15 521.61C762.23 520.39 762.55 519.198 763.091 518.101C763.632 517.005 764.383 516.026 765.302 515.22C766.222 514.414 767.291 513.797 768.449 513.404C769.606 513.011 770.83 512.85 772.05 512.93C773.27 513.01 774.462 513.33 775.559 513.871C776.655 514.411 777.634 515.163 778.44 516.082C779.246 517.002 779.863 518.071 780.256 519.228C780.649 520.386 780.81 521.61 780.73 522.83V522.83Z" fill="#56303C"/>
<path id="Vector_83" d="M760.13 552.32C760.47 547.19 770.27 540.03 770.27 540.03C770.27 540.03 779.05 548.41 778.71 553.54C778.548 556.004 777.414 558.303 775.558 559.93C773.701 561.558 771.274 562.382 768.81 562.22C766.346 562.058 764.047 560.924 762.42 559.068C760.792 557.211 759.968 554.784 760.13 552.32V552.32Z" fill="#56303C"/>
<path id="Vector_84" d="M756.5 527.33C761.63 527.67 768.78 537.47 768.78 537.47C768.78 537.47 760.4 546.25 755.27 545.91C754.05 545.829 752.858 545.509 751.762 544.967C750.665 544.426 749.687 543.674 748.881 542.754C748.076 541.834 747.459 540.765 747.067 539.607C746.674 538.449 746.514 537.225 746.595 536.005C746.676 534.785 746.996 533.593 747.537 532.497C748.079 531.4 748.831 530.422 749.751 529.616C750.671 528.81 751.74 528.194 752.898 527.802C754.056 527.409 755.28 527.249 756.5 527.33V527.33Z" fill="#56303C"/>
<path id="Vector_85" d="M784.35 547.82C779.22 547.48 772.06 537.68 772.06 537.68C772.06 537.68 780.44 528.91 785.57 529.24C786.79 529.32 787.982 529.64 789.079 530.181C790.175 530.721 791.154 531.473 791.96 532.392C792.766 533.312 793.383 534.381 793.776 535.538C794.169 536.696 794.33 537.92 794.25 539.14C794.17 540.36 793.85 541.552 793.309 542.649C792.769 543.745 792.017 544.724 791.098 545.53C790.178 546.336 789.109 546.953 787.952 547.346C786.794 547.739 785.57 547.9 784.35 547.82V547.82Z" fill="#56303C"/>
<path id="Vector_86" d="M776.23 537.96C776.154 539.106 775.741 540.205 775.041 541.116C774.341 542.027 773.387 542.711 772.299 543.08C771.211 543.449 770.038 543.487 768.928 543.19C767.819 542.892 766.822 542.272 766.064 541.409C765.307 540.545 764.822 539.476 764.672 538.337C764.522 537.198 764.713 536.04 765.221 535.009C765.729 533.979 766.531 533.122 767.526 532.547C768.521 531.972 769.664 531.705 770.81 531.78C771.572 531.83 772.316 532.029 773.001 532.366C773.686 532.704 774.297 533.173 774.801 533.747C775.304 534.321 775.689 534.988 775.935 535.711C776.18 536.434 776.28 537.198 776.23 537.96V537.96Z" fill="#D9AF00"/>
<path id="Vector_87" d="M700.07 613.72C700.067 614.294 699.838 614.843 699.431 615.248C699.024 615.653 698.474 615.88 697.9 615.88H693.5V620.34C693.463 620.889 693.218 621.403 692.816 621.778C692.414 622.154 691.885 622.363 691.335 622.363C690.785 622.363 690.255 622.154 689.854 621.778C689.452 621.403 689.207 620.889 689.17 620.34V615.88H684.71C684.161 615.843 683.647 615.598 683.272 615.196C682.896 614.795 682.687 614.265 682.687 613.715C682.687 613.165 682.896 612.635 683.272 612.234C683.647 611.832 684.161 611.587 684.71 611.55H689.17V607.1C689.15 606.803 689.191 606.506 689.291 606.225C689.39 605.945 689.546 605.689 689.749 605.471C689.952 605.254 690.198 605.081 690.471 604.962C690.743 604.844 691.038 604.783 691.335 604.783C691.632 604.783 691.927 604.844 692.199 604.962C692.472 605.081 692.718 605.254 692.921 605.471C693.124 605.689 693.28 605.945 693.38 606.225C693.479 606.506 693.52 606.803 693.5 607.1V611.55H697.95C698.517 611.563 699.056 611.797 699.452 612.203C699.848 612.608 700.07 613.153 700.07 613.72V613.72Z" fill="#A0D6FF"/>
<path id="Vector_88" d="M738.5 527.72C738.5 528.294 738.273 528.844 737.868 529.251C737.463 529.658 736.914 529.887 736.34 529.89H731.88V534.34C731.843 534.889 731.598 535.403 731.196 535.778C730.795 536.154 730.265 536.363 729.715 536.363C729.165 536.363 728.635 536.154 728.234 535.778C727.832 535.403 727.587 534.889 727.55 534.34V529.89H723.1C722.551 529.853 722.037 529.608 721.662 529.206C721.286 528.805 721.077 528.275 721.077 527.725C721.077 527.175 721.286 526.645 721.662 526.243C722.037 525.842 722.551 525.597 723.1 525.56H727.5V521.1C727.537 520.551 727.782 520.037 728.184 519.662C728.586 519.286 729.115 519.077 729.665 519.077C730.215 519.077 730.745 519.286 731.146 519.662C731.548 520.037 731.793 520.551 731.83 521.1V525.56H736.29C736.578 525.553 736.864 525.604 737.132 525.71C737.4 525.815 737.644 525.973 737.85 526.175C738.056 526.376 738.219 526.616 738.331 526.882C738.443 527.147 738.5 527.432 738.5 527.72V527.72Z" fill="#A0D6FF"/>
<path id="Vector_89" d="M796.16 569.19C796.157 569.764 795.928 570.313 795.521 570.718C795.114 571.123 794.564 571.35 793.99 571.35H789.5V575.81C789.463 576.359 789.218 576.873 788.816 577.248C788.414 577.624 787.885 577.833 787.335 577.833C786.785 577.833 786.255 577.624 785.854 577.248C785.452 576.873 785.207 576.359 785.17 575.81V571.35H780.72C780.423 571.37 780.126 571.329 779.845 571.229C779.565 571.13 779.309 570.974 779.091 570.771C778.874 570.567 778.701 570.322 778.582 570.049C778.464 569.776 778.403 569.482 778.403 569.185C778.403 568.888 778.464 568.593 778.582 568.321C778.701 568.048 778.874 567.802 779.091 567.599C779.309 567.396 779.565 567.24 779.845 567.14C780.126 567.041 780.423 567 780.72 567.02H785.17V562.57C785.15 562.273 785.191 561.976 785.291 561.695C785.39 561.415 785.546 561.159 785.749 560.941C785.952 560.724 786.198 560.551 786.471 560.432C786.743 560.314 787.038 560.253 787.335 560.253C787.632 560.253 787.927 560.314 788.199 560.432C788.472 560.551 788.718 560.724 788.921 560.941C789.124 561.159 789.28 561.415 789.38 561.695C789.479 561.976 789.52 562.273 789.5 562.57V567.02H793.95C794.238 567.015 794.525 567.067 794.793 567.173C795.061 567.28 795.305 567.439 795.51 567.641C795.716 567.843 795.88 568.084 795.991 568.35C796.103 568.616 796.16 568.902 796.16 569.19V569.19Z" fill="#A0D6FF"/>
<path id="Vector_90" d="M768.1 568.42L765.1 585.85" stroke="#D9AF00" stroke-width="3.07" stroke-miterlimit="10" stroke-linecap="round"/>
<path id="Vector_91" d="M760.24 621.78L751.78 675.45" stroke="#D9AF00" stroke-width="3.07" stroke-miterlimit="10" stroke-linecap="round"/>
</g>
<g id="HEAD">
<g id="HEAD_2">
<path id="Vector_92" d="M920.09 562.26L876.29 522.34C868.859 515.563 864.255 506.235 863.393 496.214C862.531 486.194 865.476 476.217 871.64 468.27L909.44 419.56L995.5 516.84C995.804 517.21 995.993 517.66 996.043 518.136C996.094 518.612 996.004 519.092 995.785 519.518C995.566 519.943 995.227 520.295 994.811 520.53C994.394 520.765 993.917 520.873 993.44 520.84V520.84C979.627 519.58 965.74 522.249 953.378 528.539C941.016 534.828 930.683 544.483 923.57 556.39L920.09 562.26Z" fill="#B4702F"/>
<path id="Vector_93" d="M911.695 476.837C912.193 474.73 910.888 472.619 908.781 472.121C906.673 471.624 904.562 472.929 904.065 475.036C903.568 477.143 904.873 479.254 906.98 479.752C909.087 480.249 911.198 478.944 911.695 476.837Z" fill="#56303C"/>
<path id="Vector_94" d="M877.64 479.34C879.496 479.34 881 477.836 881 475.98C881 474.124 879.496 472.62 877.64 472.62C875.784 472.62 874.28 474.124 874.28 475.98C874.28 477.836 875.784 479.34 877.64 479.34Z" fill="#56303C"/>
<path id="Vector_95" d="M895.6 505.34C895.6 505.34 904.6 507.34 908.48 499.73" stroke="#56303C" stroke-width="4.33" stroke-miterlimit="10" stroke-linecap="round"/>
<path id="Vector_96" d="M890.67 498.12C888.587 498.093 886.587 497.302 885.049 495.896C883.512 494.49 882.545 492.569 882.333 490.496C882.121 488.424 882.677 486.346 883.898 484.658C885.118 482.97 886.916 481.789 888.95 481.34C889.444 481.23 889.884 480.953 890.197 480.556C890.511 480.159 890.678 479.666 890.67 479.16V471.02" stroke="#56303C" stroke-width="4.33" stroke-miterlimit="10" stroke-linecap="round"/>
<path id="Vector_97" d="M920.21 469.55C919.44 471.15 915.31 470.74 910.98 468.65C906.65 466.56 903.77 463.56 904.54 461.97C905.31 460.38 909.44 460.78 913.77 462.88C918.1 464.98 920.98 467.96 920.21 469.55Z" fill="#EDE0C4"/>
<path id="Vector_98" d="M886.03 462.09C886.43 463.79 883.03 466.09 878.37 467.16C873.71 468.23 869.65 467.79 869.24 466.09C868.83 464.39 872.24 462.09 876.9 461.02C881.56 459.95 885.62 460.4 886.03 462.09Z" fill="#EDE0C4"/>
</g>
<g id="HAIR">
<path id="Vector_99" d="M1030.8 501.76C1029.8 501.85 1028.8 501.88 1027.8 501.89C1023.83 507.835 1018.45 512.703 1012.14 516.059C1005.83 519.415 998.787 521.154 991.64 521.12C967.91 521.12 948.64 502.38 948.64 479.25C948.64 474.955 949.315 470.686 950.64 466.6C947.282 467.376 943.846 467.765 940.4 467.76C918.13 467.76 900.04 451.84 899.72 432.11L878.8 459.11C873.881 458.145 869.2 456.22 865.024 453.446C860.849 450.671 857.261 447.102 854.465 442.941C851.669 438.78 849.72 434.109 848.729 429.195C847.738 424.281 847.725 419.219 848.69 414.3C849.655 409.381 851.58 404.7 854.354 400.524C857.129 396.349 860.698 392.76 864.859 389.964C869.02 387.168 873.691 385.219 878.605 384.229C883.519 383.238 888.581 383.225 893.5 384.19C894.213 377.353 896.76 370.836 900.871 365.327C904.982 359.819 910.505 355.522 916.856 352.893C923.207 350.263 930.15 349.398 936.952 350.389C943.754 351.379 950.163 354.189 955.5 358.52C960 355.23 965.146 352.929 970.599 351.77C976.052 350.61 981.688 350.617 987.138 351.791C992.588 352.965 997.728 355.279 1002.22 358.581C1006.71 361.883 1010.45 366.099 1013.2 370.95C1020.3 370.415 1027.42 371.769 1033.82 374.874C1040.23 377.979 1045.7 382.725 1049.68 388.63C1053.66 394.534 1056.01 401.387 1056.48 408.491C1056.96 415.596 1055.54 422.699 1052.38 429.08C1058.89 434.085 1063.73 440.945 1066.26 448.756C1068.79 456.567 1068.89 464.962 1066.56 472.833C1064.22 480.704 1059.55 487.682 1053.17 492.846C1046.78 498.011 1038.99 501.118 1030.8 501.76V501.76Z" fill="#EDE0C4"/>
<path id="Vector_100" d="M1003.77 479.26C1000.64 477.058 998.51 473.702 997.852 469.931C997.194 466.161 998.06 462.283 1000.26 459.15" stroke="white" stroke-width="3.92" stroke-miterlimit="10" stroke-linecap="round"/>
<path id="Vector_101" d="M923.93 434.54C915.24 430.87 911.56 419.94 915.71 410.12" stroke="white" stroke-width="3.92" stroke-miterlimit="10" stroke-linecap="round"/>
<path id="Vector_102" d="M914.34 424.03C910.968 425.836 907.016 426.23 903.354 425.123C899.691 424.017 896.618 421.501 894.81 418.13" stroke="white" stroke-width="3.92" stroke-miterlimit="10" stroke-linecap="round"/>
</g>
</g>
</g>
<g id="WHEEL CHAIR_2">
<path id="Vector_103" d="M1283.21 577.18H1215.14C1213.17 577.18 1211.27 576.396 1209.88 575.001C1208.48 573.606 1207.7 571.713 1207.7 569.74C1207.7 567.766 1208.48 565.872 1209.88 564.476C1211.27 563.079 1213.17 562.293 1215.14 562.29H1283.21C1285.19 562.293 1287.08 563.078 1288.47 564.475C1289.87 565.872 1290.66 567.765 1290.66 569.74C1290.66 571.714 1289.87 573.606 1288.47 575.001C1287.08 576.396 1285.18 577.18 1283.21 577.18V577.18Z" fill="#D9AF00"/>
<path id="Vector_104" d="M820.804 1159.51L576.545 1131.94L575.352 1142.51L819.611 1170.08L820.804 1159.51Z" fill="#56303C"/>
<path id="Vector_105" d="M1064.96 1253.75C1176.37 1253.75 1266.68 1150.71 1266.68 1023.61C1266.68 896.507 1176.37 793.47 1064.96 793.47C953.553 793.47 863.24 896.507 863.24 1023.61C863.24 1150.71 953.553 1253.75 1064.96 1253.75Z" stroke="#56303C" stroke-width="4.33" stroke-miterlimit="10" stroke-linecap="round"/>
<path id="Vector_106" d="M1160.95 795.69C1196.01 812.61 1226.01 840.52 1247.62 875.63" stroke="#56303C" stroke-width="4.33" stroke-miterlimit="10" stroke-linecap="round"/>
<path id="Vector_107" d="M1289.12 562.26H1207.7C1197.94 562.259 1188.44 565.446 1180.65 571.338C1172.86 577.229 1167.21 585.503 1164.56 594.9L1097.19 827.03C1086.3 864.563 1063.51 897.545 1032.27 921.014C1001.02 944.484 962.991 957.172 923.91 957.17H870.29" stroke="#56303C" stroke-width="4.33" stroke-miterlimit="10" stroke-linecap="round"/>
<path id="Vector_108" d="M1066.17 1039.1C1075.26 1039.1 1082.62 1031.74 1082.62 1022.65C1082.62 1013.56 1075.26 1006.2 1066.17 1006.2C1057.08 1006.2 1049.72 1013.56 1049.72 1022.65C1049.72 1031.74 1057.08 1039.1 1066.17 1039.1Z" stroke="#56303C" stroke-width="4.33" stroke-miterlimit="10" stroke-linecap="round"/>
<path id="Vector_109" d="M1090.7 784.77H972.95C970.43 784.77 968.014 783.769 966.233 781.988C964.451 780.206 963.45 777.79 963.45 775.27V775.27C963.449 774.022 963.693 772.785 964.17 771.631C964.647 770.478 965.347 769.429 966.229 768.546C967.111 767.663 968.159 766.962 969.312 766.484C970.466 766.006 971.702 765.76 972.95 765.76H1090.7C1091.95 765.76 1093.18 766.006 1094.34 766.484C1095.49 766.962 1096.54 767.663 1097.42 768.546C1098.3 769.429 1099 770.478 1099.48 771.631C1099.96 772.785 1100.2 774.022 1100.2 775.27V775.27C1100.2 777.79 1099.2 780.206 1097.42 781.988C1095.64 783.769 1093.22 784.77 1090.7 784.77V784.77Z" fill="#56303C"/>
</g>
<g id="BUTTERFLY">
<path id="Vector_110" d="M679.424 447.46C679.913 435.635 673.501 425.767 665.103 425.419C656.704 425.071 649.499 434.376 649.01 446.201C648.52 458.027 654.932 467.895 663.33 468.242C671.729 468.59 678.934 459.285 679.424 447.46Z" fill="#FFAFB1"/>
<path id="Vector_111" d="M652.697 473.149C653.867 467.831 648.457 462.121 640.614 460.397C632.771 458.672 625.465 461.586 624.296 466.905C623.126 472.223 628.536 477.932 636.379 479.657C644.222 481.381 651.528 478.468 652.697 473.149Z" fill="#FFAFB1"/>
<path id="Vector_112" d="M663.55 482.877C670.204 479.394 674.698 474.849 673.586 472.725C672.474 470.601 666.179 471.704 659.524 475.187C652.87 478.67 648.376 483.216 649.488 485.339C650.599 487.463 656.895 486.361 663.55 482.877Z" fill="#56303C"/>
<path id="Vector_113" d="M679.17 472.05C678.642 472.391 678.022 472.565 677.393 472.548C676.765 472.531 676.155 472.325 675.646 471.956C675.137 471.586 674.751 471.072 674.539 470.479C674.327 469.887 674.3 469.244 674.46 468.636C674.62 468.028 674.96 467.482 675.435 467.07C675.911 466.658 676.5 466.4 677.125 466.329C677.75 466.258 678.382 466.378 678.938 466.673C679.494 466.967 679.948 467.423 680.24 467.98C680.631 468.663 680.739 469.473 680.538 470.234C680.338 470.996 679.847 471.648 679.17 472.05V472.05Z" fill="#56303C"/>
</g>
</g>
<g id="YOUNG WOMAN">
<g id="HEAD_3">
<path id="HAIR_2" d="M1486.42 177.02L1345.2 235.89L1369.2 104.34H1360.35C1359.25 104.34 1358.17 104.104 1357.18 103.649C1356.18 103.193 1355.29 102.53 1354.57 101.702C1353.86 100.874 1353.32 99.9018 1353.01 98.8508C1352.71 97.7999 1352.63 96.6947 1352.78 95.6101L1354.78 81.7101C1356.09 72.584 1360.64 64.2352 1367.61 58.1957C1374.57 52.1561 1383.48 48.8309 1392.7 48.8301H1441.99C1453.38 48.8323 1464.31 53.3341 1472.4 61.3555C1480.49 69.3769 1485.08 80.2687 1485.18 91.6601L1486.42 177.02Z" fill="#56303C"/>
<g id="HEAD_4">
<path id="Vector_114" d="M1482.68 178.48L1443.85 193.67C1441.59 194.552 1439.66 196.108 1438.32 198.126C1436.97 200.144 1436.28 202.526 1436.34 204.95L1437.26 245.18H1415.5L1406.75 189.97L1401.51 156.97C1391.3 157.67 1378.01 148.97 1379 138.8L1380.56 98.8701H1447.56L1441.27 145.68C1440.57 150.959 1441.25 156.329 1443.24 161.266C1445.24 166.202 1448.48 170.536 1452.66 173.842C1456.83 177.149 1461.79 179.314 1467.06 180.127C1472.32 180.94 1477.7 180.373 1482.68 178.48V178.48Z" fill="#FFAFB1"/>
<path id="Vector_115" d="M1398.07 95.79L1394.72 120C1394.66 120.765 1394.76 121.535 1395.01 122.261C1395.26 122.986 1395.66 123.652 1396.18 124.216C1396.7 124.779 1397.33 125.229 1398.04 125.536C1398.74 125.843 1399.5 126.001 1400.27 126" stroke="#56303C" stroke-width="4.33" stroke-miterlimit="10" stroke-linecap="round"/>
<path id="Vector_116" d="M1413.67 114.21C1415.53 114.21 1417.03 112.706 1417.03 110.85C1417.03 108.994 1415.53 107.49 1413.67 107.49C1411.81 107.49 1410.31 108.994 1410.31 110.85C1410.31 112.706 1411.81 114.21 1413.67 114.21Z" fill="#56303C"/>
<path id="Vector_117" d="M1385.1 113.93C1386.49 113.93 1387.62 112.551 1387.62 110.85C1387.62 109.149 1386.49 107.77 1385.1 107.77C1383.71 107.77 1382.58 109.149 1382.58 110.85C1382.58 112.551 1383.71 113.93 1385.1 113.93Z" fill="#56303C"/>
<path id="Vector_118" d="M1398.5 133.83C1400.99 133.83 1406.38 133.83 1410.5 129.13" stroke="#56303C" stroke-width="4.33" stroke-miterlimit="10" stroke-linecap="round"/>
<path id="Vector_119" d="M1381.24 121.81C1386.5 121.81 1390.76 116.666 1390.76 110.32C1390.76 103.974 1386.5 98.8301 1381.24 98.8301C1375.98 98.8301 1371.72 103.974 1371.72 110.32C1371.72 116.666 1375.98 121.81 1381.24 121.81Z" stroke="white" stroke-width="2.44" stroke-miterlimit="10"/>
<path id="Vector_120" d="M1414.57 122.08C1420.76 122.08 1425.77 116.815 1425.77 110.32C1425.77 103.825 1420.76 98.5601 1414.57 98.5601C1408.38 98.5601 1403.37 103.825 1403.37 110.32C1403.37 116.815 1408.38 122.08 1414.57 122.08Z" stroke="white" stroke-width="2.55" stroke-miterlimit="10"/>
<path id="Vector_121" d="M1424.01 149.55C1424.01 149.55 1411.84 156.97 1399.66 156.97L1404.09 173.1L1424.01 149.55Z" fill="#56303C"/>
</g>
<g id="HAT">
<path id="Vector_122" d="M1505.7 109.207C1516.65 91.9334 1498 60.4853 1464.05 38.9654C1430.1 17.4455 1393.71 14.0028 1382.76 31.276C1371.81 48.5492 1390.45 79.9971 1424.4 101.517C1458.35 123.037 1494.75 126.48 1505.7 109.207Z" fill="#D9AF00"/>
<path id="Vector_123" d="M1446.31 56.11C1447.03 54.9682 1448.18 54.1603 1449.5 53.864C1450.82 53.5677 1452.2 53.8073 1453.34 54.53C1454.48 55.2527 1455.29 56.3994 1455.59 57.7177C1455.88 59.0361 1455.64 60.4182 1454.92 61.56" stroke="white" stroke-width="3.92" stroke-miterlimit="10" stroke-linecap="round"/>
</g>
</g>
<g id="COAT">
<path id="Vector_124" d="M1637.14 875.63H1363.21L1347.61 857.18C1335.59 842.956 1326.61 826.424 1321.22 808.602C1315.82 790.779 1314.13 772.041 1316.24 753.54L1341.81 529.61L1292.94 558.19L1260.94 529.19L1349.94 458.43L1354.23 420.95L1329.7 392.07L1295.7 449.16L1139.89 553.26L1102.25 522.77L1246.06 400.98L1310.31 260.56C1313.25 254.13 1317.5 248.383 1322.79 243.686C1328.07 238.989 1334.28 235.445 1341.01 233.28L1388.85 217.87C1392.39 216.733 1395.47 214.502 1397.66 211.499C1399.85 208.496 1401.03 204.876 1401.03 201.16V196.96C1401.03 195.309 1401.6 193.707 1402.64 192.43C1403.69 191.153 1405.15 190.28 1406.77 189.96L1415.52 245.17H1437.26L1436.34 204.94C1436.28 202.516 1436.97 200.134 1438.32 198.116C1439.66 196.098 1441.59 194.542 1443.85 193.66L1492 174.83C1493.05 174.418 1494.18 174.238 1495.31 174.303C1496.44 174.369 1497.54 174.678 1498.53 175.209C1499.53 175.74 1500.4 176.481 1501.08 177.381C1501.77 178.28 1502.25 179.317 1502.49 180.42L1507.49 202.81L1544.49 225.72C1552.75 230.839 1559.08 238.548 1562.5 247.643C1565.91 256.739 1566.22 266.71 1563.38 276L1517.2 426.49C1513.57 438.31 1514.11 451.018 1518.72 462.49L1637.14 875.63Z" fill="#A0D6FF"/>
<path id="Vector_125" d="M1342.5 321.55L1332.68 375.6C1331.74 380.764 1331.96 386.071 1333.32 391.139C1334.68 396.207 1337.15 400.911 1340.55 404.91L1354.2 420.99" stroke="#56303C" stroke-width="4.33" stroke-miterlimit="10" stroke-linecap="round"/>
<path id="Vector_126" d="M1404.87 497.15L1468.48 875.63" stroke="white" stroke-width="4.33" stroke-miterlimit="10" stroke-linecap="round"/>
<path id="Vector_127" d="M1437.26 245.18H1391.87C1388.3 245.179 1384.78 245.947 1381.54 247.43C1378.29 248.914 1375.41 251.079 1373.08 253.778C1370.75 256.477 1369.03 259.646 1368.03 263.07C1367.04 266.494 1366.79 270.092 1367.31 273.62L1393.44 423.87" stroke="white" stroke-width="4.33" stroke-miterlimit="10" stroke-linecap="round"/>
<path id="Vector_128" d="M1371.72 441.14L1422.21 400.99L1459.9 292.23" stroke="#56303C" stroke-width="4.33" stroke-miterlimit="10" stroke-linecap="round"/>
<path id="Vector_129" d="M1517.3 366.68L1477.42 443.03C1472.61 452.222 1465.31 459.876 1456.36 465.12L1353.3 529.26" stroke="#56303C" stroke-width="4.33" stroke-miterlimit="10" stroke-linecap="round"/>
<path id="Vector_130" d="M1444.2 200.03L1464.87 220.65L1510.67 199.64" stroke="white" stroke-width="4.33" stroke-miterlimit="10" stroke-linecap="round"/>
<path id="Vector_131" d="M1363.04 297.58H1376.23" stroke="#56303C" stroke-width="4.33" stroke-miterlimit="10" stroke-linecap="round"/>
<path id="Vector_132" d="M1370.97 346.79H1384.16" stroke="#56303C" stroke-width="4.33" stroke-miterlimit="10" stroke-linecap="round"/>
</g>
<g id="LEGS_2">
<g id="LEG">
<path id="Vector_133" d="M1589.24 1200.66L1556.83 1253.75H1500.83C1500.19 1253.75 1499.57 1253.52 1499.09 1253.1C1498.61 1252.68 1498.3 1252.1 1498.22 1251.47C1498.13 1250.83 1498.28 1250.19 1498.63 1249.66C1498.99 1249.13 1499.52 1248.75 1500.14 1248.58L1504 1247.58C1508.67 1246.32 1512.99 1244 1516.63 1240.81C1520.26 1237.62 1523.12 1233.64 1524.99 1229.18C1526.85 1224.72 1527.67 1219.89 1527.38 1215.06C1527.09 1210.23 1525.7 1205.53 1523.32 1201.32L1519.19 1194.04L1571.05 1152.93L1589.24 1200.66Z" fill="#B4702F"/>
<path id="Vector_134" d="M1571.04 1152.88L1519.18 1193.99L1504.81 1168.61L1561.68 1128.33L1571.04 1152.88Z" fill="#FFAFB1"/>
<path id="Vector_135" d="M1519.18 1193.99L1571.04 1153.48" stroke="#56303C" stroke-width="4.33" stroke-miterlimit="10" stroke-linecap="round"/>
<path id="Vector_136" d="M1523.95 1209.86L1535.72 1200.67" stroke="#56303C" stroke-width="4.33" stroke-miterlimit="10" stroke-linecap="round"/>
<path id="Vector_137" d="M1527.12 1219.39L1538.89 1210.19" stroke="#56303C" stroke-width="4.33" stroke-miterlimit="10" stroke-linecap="round"/>
<path id="Vector_138" d="M1499.23 1253.75H1556.83L1589.24 1200.66" stroke="#56303C" stroke-width="4.33" stroke-miterlimit="10" stroke-linecap="round"/>
</g>
<g id="LEG_2">
<path id="Vector_139" d="M1286.89 1187.38L1351.5 1197.58L1331.63 1253.75L1226.02 1241.94C1225.27 1241.85 1224.57 1241.49 1224.06 1240.93C1223.55 1240.36 1223.27 1239.63 1223.26 1238.87C1223.26 1238.11 1223.53 1237.38 1224.02 1236.8C1224.52 1236.23 1225.21 1235.85 1225.96 1235.75L1247.89 1232.9C1256.58 1231.77 1264.71 1227.99 1271.18 1222.07C1277.64 1216.15 1282.13 1208.39 1284.02 1199.83L1286.89 1187.38Z" fill="#B4702F"/>
<path id="Vector_140" d="M1358.79 1176.97L1351.5 1197.58L1286.89 1187.38L1292.01 1165.15L1358.79 1176.97Z" fill="#FFAFB1"/>
<path id="Vector_141" d="M1286.45 1188.9L1350.97 1199.08" stroke="#56303C" stroke-width="4.33" stroke-miterlimit="10" stroke-linecap="round"/>
<path id="Vector_142" d="M1281.68 1201.6L1298.84 1204.31" stroke="#56303C" stroke-width="4.33" stroke-miterlimit="10" stroke-linecap="round"/>
<path id="Vector_143" d="M1278.51 1211.12L1295.67 1213.83" stroke="#56303C" stroke-width="4.33" stroke-miterlimit="10" stroke-linecap="round"/>
<path id="Vector_144" d="M1331.63 1253.75L1224.43 1241.93" stroke="#56303C" stroke-width="4.33" stroke-miterlimit="10" stroke-linecap="round"/>
</g>
<g id="PANTS">
<path id="LEGS_3" d="M1561.68 1128.33L1504.82 1168.61L1416.77 1013.11L1358.79 1176.98L1292.01 1165.15L1420.72 606.41L1465.41 875.64L1561.68 1128.33Z" fill="#D9AF00"/>
<g id="PATTERN">
<g id="Group">
<path id="Vector_145" d="M1329.42 1170.35V997.27" stroke="#B4702F" stroke-width="2.24" stroke-miterlimit="10"/>
<path id="Vector_146" d="M1359.76 1176.49V876.07" stroke="#B4702F" stroke-width="2.24" stroke-miterlimit="10"/>
<path id="Vector_147" d="M1390.11 1089.04V724.2" stroke="#B4702F" stroke-width="2.24" stroke-miterlimit="10"/>
<path id="Vector_148" d="M1420.46 1009.27V612.21" stroke="#B4702F" stroke-width="2.24" stroke-miterlimit="10"/>
<path id="Vector_149" d="M1465.28 875.57H1360.55" stroke="#B4702F" stroke-width="2.24" stroke-miterlimit="10"/>
<path id="Vector_150" d="M1460.68 845.22H1366.68" stroke="#B4702F" stroke-width="2.24" stroke-miterlimit="10"/>
<path id="Vector_151" d="M1454.54 814.87H1372.82" stroke="#B4702F" stroke-width="2.24" stroke-miterlimit="10"/>
<path id="Vector_152" d="M1451.48 784.53H1378.96" stroke="#B4702F" stroke-width="2.24" stroke-miterlimit="10"/>
<path id="Vector_153" d="M1448.41 754.18H1386.63" stroke="#B4702F" stroke-width="2.24" stroke-miterlimit="10"/>
<path id="Vector_154" d="M1442.27 723.83H1392.76" stroke="#B4702F" stroke-width="2.24" stroke-miterlimit="10"/>
<path id="Vector_155" d="M1436.13 693.48H1398.9" stroke="#B4702F" stroke-width="2.24" stroke-miterlimit="10"/>
<path id="Vector_156" d="M1431.53 663.14H1408.28" stroke="#B4702F" stroke-width="2.24" stroke-miterlimit="10"/>
<path id="Vector_157" d="M1425.4 632.79H1414.24" stroke="#B4702F" stroke-width="2.24" stroke-miterlimit="10"/>
<path id="Vector_158" d="M1379.47 1118.53H1302.75" stroke="#B4702F" stroke-width="2.24" stroke-miterlimit="10"/>
<path id="Vector_159" d="M1557.33 1118.53H1476.46" stroke="#B4702F" stroke-width="2.24" stroke-miterlimit="10"/>
<path id="Vector_160" d="M1368.62 1149.19H1295.67" stroke="#B4702F" stroke-width="2.24" stroke-miterlimit="10"/>
<path id="Vector_161" d="M1533.01 1149.19H1493.82" stroke="#B4702F" stroke-width="2.24" stroke-miterlimit="10"/>
<path id="Vector_162" d="M1390.11 1088.18H1309.92" stroke="#B4702F" stroke-width="2.24" stroke-miterlimit="10"/>
<path id="Vector_163" d="M1546.59 1088.18H1459.05" stroke="#B4702F" stroke-width="2.24" stroke-miterlimit="10"/>
<path id="Vector_164" d="M1400.94 1057.83H1316.06" stroke="#B4702F" stroke-width="2.24" stroke-miterlimit="10"/>
<path id="Vector_165" d="M1535.85 1057.83H1442.09" stroke="#B4702F" stroke-width="2.24" stroke-miterlimit="10"/>
<path id="Vector_166" d="M1411.68 1027.48H1322.19" stroke="#B4702F" stroke-width="2.24" stroke-miterlimit="10"/>
<path id="Vector_167" d="M1525.11 1027.48H1424.91" stroke="#B4702F" stroke-width="2.24" stroke-miterlimit="10"/>
<path id="Vector_168" d="M1512.84 997.14H1328.33" stroke="#B4702F" stroke-width="2.24" stroke-miterlimit="10"/>
<path id="Vector_169" d="M1500.57 966.79H1336" stroke="#B4702F" stroke-width="2.24" stroke-miterlimit="10"/>
<path id="Vector_170" d="M1488.29 936.44H1345.2" stroke="#B4702F" stroke-width="2.24" stroke-miterlimit="10"/>
<path id="Vector_171" d="M1476.02 906.1H1351.52" stroke="#B4702F" stroke-width="2.24" stroke-miterlimit="10"/>
<path id="Vector_172" d="M1542.8 1142.74V1087.78" stroke="#B4702F" stroke-width="2.24" stroke-miterlimit="10"/>
<path id="Vector_173" d="M1452.18 1079.84V784.03" stroke="#B4702F" stroke-width="2.24" stroke-miterlimit="10"/>
<path id="Vector_174" d="M1482.53 1133.53V912.89" stroke="#B4702F" stroke-width="2.24" stroke-miterlimit="10"/>
<path id="Vector_175" d="M1512.87 1162.68V997.27" stroke="#B4702F" stroke-width="2.24" stroke-miterlimit="10"/>
</g>
</g>
<g id="SHADOWS">
<path id="Vector_176" d="M1287.09 1164.28L1363.39 1177.79" stroke="#56303C" stroke-width="4.33" stroke-miterlimit="10" stroke-linecap="round"/>
<path id="Vector_177" d="M1562.74 1127.58L1503.01 1169.89" stroke="#56303C" stroke-width="4.33" stroke-miterlimit="10" stroke-linecap="round"/>
<path id="Vector_178" d="M1416.77 1013.1L1465.41 875.63L1468.51 883.76L1437.72 1050.11L1416.77 1013.1Z" fill="#56303C"/>
</g>
</g>
</g>
<g id="HANDS_2">
<path id="Vector_179" d="M1231.25 583.59C1229.1 583.587 1227.03 582.73 1225.51 581.205C1223.99 579.681 1223.13 577.615 1223.13 575.46V568.26C1223.13 565.583 1223.73 562.941 1224.9 560.531C1226.06 558.12 1227.75 556.004 1229.85 554.34L1261.44 529.26L1289.28 554.46L1274.5 562.26C1270.4 564.43 1267.84 567.1 1267.84 571.74V572.81C1267.84 573.966 1268.3 575.075 1269.12 575.893C1269.93 576.711 1271.04 577.17 1272.2 577.17H1281.1L1276.87 581.43C1276.2 582.11 1275.4 582.65 1274.51 583.018C1273.63 583.387 1272.69 583.578 1271.73 583.58L1231.25 583.59Z" fill="#FFAFB1"/>
<path id="Vector_180" d="M1131.19 545.54L1117.64 560.35H1069.31C1071.34 555.558 1074.26 551.194 1077.91 547.49L1102.25 522.78L1131.19 545.54Z" fill="#FFAFB1"/>
<path id="Vector_181" d="M1113.44 581.43H1078.99C1077.64 581.448 1076.31 581.05 1075.19 580.29L1070.73 577.14H1073.5C1076.3 577.14 1078.75 575.66 1079.5 573.54L1079.87 572.45C1080.87 569.33 1084.5 567.16 1088.62 567.16H1120.22C1123.54 567.16 1125.96 569.61 1125.13 572.16L1124.13 575.03C1122.84 578.78 1118.5 581.43 1113.44 581.43Z" fill="#FFAFB1"/>
<path id="Vector_182" d="M1116.65 569.01L1111.23 579.64" stroke="#56303C" stroke-width="4.33" stroke-miterlimit="10" stroke-linecap="round"/>
<path id="Vector_183" d="M1105.53 569.01L1100.11 579.64" stroke="#56303C" stroke-width="4.33" stroke-miterlimit="10" stroke-linecap="round"/>
<path id="Vector_184" d="M1094.42 569.01L1089 579.64" stroke="#56303C" stroke-width="4.33" stroke-miterlimit="10" stroke-linecap="round"/>
</g>
</g>
<g id="SUN &#38; CLOUDS">
<path id="Vector_185" d="M687.29 276.35C762.705 276.35 823.84 215.215 823.84 139.8C823.84 64.3855 762.705 3.25 687.29 3.25C611.876 3.25 550.74 64.3855 550.74 139.8C550.74 215.215 611.876 276.35 687.29 276.35Z" fill="#EFD963"/>
<path id="Vector_186" d="M700.37 195.41H331.95C331.95 166.97 365.51 143.91 406.95 143.91C415.907 143.891 424.829 145.017 433.5 147.26C440.411 138.337 449.268 131.11 459.395 126.13C469.523 121.149 480.654 118.547 491.94 118.52C527.42 118.52 557.14 143.81 564.94 177.77C578.58 169.42 600.58 162.82 625.4 162.82C666.81 162.82 700.37 181.19 700.37 195.41Z" fill="white"/>
<path id="Vector_187" d="M1220.5 74.7899H917.5C917.5 35.3899 946.02 3.44995 981.21 3.44995C1001.29 3.44995 1019.21 13.85 1030.87 30.11C1038.24 28.0322 1045.86 26.9888 1053.51 27.0099C1079.22 27.0099 1101.38 38.4299 1111.44 54.8799C1122.99 48.8799 1139.05 44.55 1156.8 44.55C1192 44.55 1220.5 61.5899 1220.5 74.7899Z" fill="white"/>
</g>
</g>
</svg>
